<svg xmlns="http://www.w3.org/2000/svg" enable-background="new 0 0 64 64" viewBox="0 0 64 64" id="react"><polygon fill="#2c2536" points="37.17 59.75 16.55 59.75 17.36 57.48 21.08 47.17 32.63 47.17 36.35 57.48"></polygon><path fill="#332a40" d="M40.59,58.53v2.22c0,0.58-0.47,1.06-1.06,1.06H14.18c-0.58,0-1.06-0.47-1.06-1.06v-2.22
					c0-0.58,0.47-1.05,1.06-1.05h25.36C40.12,57.48,40.59,57.96,40.59,58.53z"></path><g><path fill="#332a40" d="M51.41,52.2H2.3c-1.27,0-2.3-1.03-2.3-2.3V15.44c0-1.27,1.03-2.3,2.3-2.3h49.11
								c1.27,0,2.3,1.03,2.3,2.3v34.47C53.71,51.18,52.68,52.2,51.41,52.2z"></path><rect width="46.44" height="33.09" x="3.64" y="16.13" fill="#43b5d1"></rect></g><g><polygon fill="#766aa7" points="54.33 7.21 49.25 7.21 49.68 2.19 53.92 2.19"></polygon><polygon fill="#766aa7" points="49.23 22.91 54.32 22.92 53.89 27.94 49.65 27.94"></polygon><polygon fill="#766aa7" points="43.71 16.78 46.25 21.18 41.69 23.33 39.57 19.65"></polygon><polygon fill="#766aa7" points="57.31 21.2 59.85 16.8 63.99 19.68 61.86 23.35"></polygon><polygon fill="#766aa7" points="46.26 8.93 43.72 13.33 39.58 10.45 41.7 6.78"></polygon><polygon fill="#766aa7" points="59.86 13.35 57.32 8.94 61.88 6.8 64 10.48"></polygon><path fill="#8676b7" d="M61.73,15.07c-0.01,5.49-4.47,9.94-9.96,9.94c-5.49-0.01-9.94-4.47-9.94-9.96
				c0.01-5.49,4.47-9.94,9.96-9.94C57.29,5.12,61.74,9.58,61.73,15.07z"></path><path fill="#fff" d="M57.53,15.07c0,3.17-2.58,5.75-5.75,5.74c-3.17,0-5.74-2.58-5.74-5.75c0-3.17,2.58-5.74,5.75-5.74
				C54.97,9.32,57.54,11.9,57.53,15.07z"></path></g><g><path fill="#e8eae7" d="M18.34 22.29c0-.26-.07-.5-.18-.71-.1-.18-.23-.34-.4-.47-.26-.21-.59-.33-.94-.33-.84 0-1.51.68-1.51 1.51 0 .49.23.92.58 1.19.16.12.34.22.54.26.12.04.26.06.39.06C17.66 23.81 18.34 23.13 18.34 22.29zM16.14 22.87c-.14-.15-.21-.36-.21-.57 0-.49.4-.89.9-.89.14 0 .26.03.38.09.19.09.34.25.43.44.06.11.09.24.09.37 0 .5-.41.9-.9.9-.06 0-.12-.01-.17-.02C16.45 23.14 16.26 23.03 16.14 22.87zM38.95 36.7c.18-.14.36-.27.52-.41-.18-.08-.33-.23-.41-.41-.15.14-.32.26-.49.39-2.51 1.84-6.82 3.05-11.7 3.05-7.74 0-14.04-3.05-14.04-6.8 0-3.76 6.3-6.8 14.04-6.8 7.74 0 14.04 3.05 14.04 6.8 0 .55-.14 1.09-.4 1.61-.09.18-.19.36-.31.53.19.08.35.22.45.4.13-.18.25-.38.35-.57.34-.63.53-1.29.53-1.97 0-4.1-6.58-7.42-14.66-7.42S12.2 28.41 12.2 32.51c0 4.09 6.58 7.42 14.66 7.42C31.87 39.93 36.31 38.65 38.95 36.7z"></path><path fill="#e8eae7" d="M20.07,44.23c0-0.11,0.02-0.22,0.06-0.31c-0.22,0-0.42-0.01-0.63-0.05c-0.79-0.1-1.48-0.4-2.01-0.87
									c-1.99-1.77-1.6-5.68,0.64-9.87c0.1-0.21,0.22-0.41,0.34-0.62v-0.01c0.87-1.51,1.96-3.04,3.28-4.51
									c0.26-0.29,0.52-0.57,0.79-0.85c1.39-1.43,2.85-2.65,4.29-3.61c0.18-0.12,0.37-0.24,0.55-0.35c3.57-2.2,6.96-2.78,8.79-1.15
									c0.87,0.78,1.29,1.98,1.29,3.42c0,1.84-0.67,4.08-1.91,6.41c-0.1,0.2-0.22,0.41-0.34,0.61c-0.87,1.53-1.98,3.08-3.31,4.57
									c-1.58,1.77-3.3,3.28-5.05,4.43c-0.18,0.12-0.37,0.25-0.55,0.36c-0.87,0.54-1.74,0.98-2.59,1.32
									c-0.47,0.19-0.93,0.34-1.37,0.47c-0.22,0.06-0.42,0.1-0.62,0.14c0.09,0.14,0.14,0.3,0.14,0.47c0,0.04,0,0.08-0.01,0.12
									c0.2-0.04,0.41-0.09,0.63-0.15c0.47-0.12,0.96-0.29,1.47-0.49c0.97-0.39,1.95-0.9,2.92-1.52c0.18-0.12,0.37-0.23,0.55-0.36
									c1.72-1.16,3.41-2.65,4.94-4.38c1.26-1.42,2.33-2.9,3.19-4.37c0.12-0.2,0.24-0.41,0.35-0.61c2.49-4.56,2.91-8.9,0.67-10.9
									c-2.06-1.84-5.86-1.21-9.76,1.25c-0.18,0.12-0.36,0.23-0.54,0.36c-1.43,0.95-2.86,2.16-4.22,3.56
									c-0.26,0.27-0.52,0.55-0.77,0.83c-1.09,1.23-2.04,2.49-2.82,3.76c-0.12,0.18-0.23,0.37-0.34,0.55
									c-0.12,0.2-0.24,0.41-0.36,0.62c-1.4,2.56-2.16,5.05-2.16,7.1c0,1.62,0.47,2.97,1.46,3.85c0.64,0.57,1.45,0.92,2.4,1.03
									c0.2,0.03,0.42,0.04,0.64,0.04C20.09,44.43,20.07,44.33,20.07,44.23z"></path><path fill="#e8eae7" d="M36.65,43.41c2.24-2,1.79-6.38-0.74-10.94c-0.11-0.2-0.23-0.41-0.36-0.61
									c-0.86-1.45-1.92-2.91-3.18-4.3c-1.58-1.77-3.29-3.25-5-4.38c-0.18-0.12-0.37-0.25-0.55-0.36c-3.5-2.19-6.92-2.91-9.06-1.71
									c-0.2,0.1-0.38,0.23-0.55,0.38c0.19,0.09,0.34,0.25,0.43,0.44c0.16-0.13,0.34-0.25,0.52-0.34c1.92-1.01,4.95-0.34,8.12,1.59
									c0.18,0.11,0.36,0.22,0.55,0.34c1.72,1.13,3.47,2.63,5.09,4.43c1.32,1.47,2.43,3,3.29,4.51c0.12,0.2,0.24,0.41,0.34,0.61
									c1.27,2.36,1.96,4.62,1.96,6.48c0,1.43-0.41,2.62-1.28,3.4c-1.82,1.64-5.23,1.07-8.81-1.13c-0.19-0.11-0.38-0.23-0.57-0.36
									c-1.45-0.95-2.91-2.16-4.31-3.6c-0.25-0.26-0.5-0.53-0.75-0.81c-1.33-1.48-2.45-3.04-3.33-4.56v-0.01
									c-0.12-0.2-0.23-0.41-0.34-0.61c-1.68-3.12-2.32-6.09-1.7-8.13c0.06-0.2,0.13-0.39,0.22-0.58
									c-0.21-0.04-0.39-0.15-0.52-0.31c-0.1,0.2-0.18,0.41-0.24,0.62c-0.19,0.59-0.28,1.24-0.28,1.94c0,2.04,0.75,4.53,2.16,7.07
									c0.11,0.21,0.23,0.42,0.36,0.62c0.1,0.18,0.22,0.38,0.33,0.56c0.81,1.27,1.76,2.56,2.87,3.79c0.25,0.27,0.49,0.54,0.74,0.79
									c1.36,1.4,2.8,2.6,4.23,3.56c0.19,0.13,0.38,0.25,0.57,0.37C30.79,44.64,34.59,45.26,36.65,43.41z"></path><g><path fill="#e8eae7" d="M41.37,35.48c0-0.38-0.15-0.74-0.38-1c-0.14-0.15-0.3-0.28-0.49-0.36c-0.2-0.09-0.41-0.15-0.65-0.15
						c-0.84,0-1.51,0.68-1.51,1.51c0,0.29,0.08,0.55,0.22,0.78c0.1,0.17,0.23,0.31,0.39,0.43c0.25,0.18,0.57,0.3,0.91,0.3
						C40.68,36.99,41.37,36.32,41.37,35.48z M39.05,35.88c-0.07-0.12-0.1-0.25-0.1-0.39c0-0.5,0.41-0.9,0.9-0.9
						c0.12,0,0.23,0.02,0.33,0.06c0.19,0.08,0.35,0.22,0.45,0.4c0.07,0.13,0.12,0.28,0.12,0.44c0,0.49-0.41,0.89-0.9,0.89
						c-0.14,0-0.27-0.03-0.39-0.09C39.29,36.2,39.14,36.06,39.05,35.88z"></path></g><g><path fill="#e8eae7" d="M22.49,44.23V44.2c-0.01-0.21-0.05-0.41-0.14-0.59c-0.23-0.52-0.76-0.89-1.38-0.89
						c-0.71,0-1.31,0.49-1.47,1.15c-0.02,0.12-0.04,0.24-0.04,0.36c0,0.09,0.01,0.17,0.02,0.25c0.12,0.71,0.74,1.26,1.49,1.26
						C21.8,45.74,22.49,45.07,22.49,44.23z M20.12,44.52c-0.03-0.09-0.05-0.19-0.05-0.3c0-0.11,0.02-0.22,0.06-0.31
						c0.13-0.34,0.46-0.58,0.84-0.58c0.32,0,0.6,0.17,0.76,0.42c0.09,0.14,0.14,0.3,0.14,0.47c0,0.04,0,0.08-0.01,0.12
						c-0.06,0.44-0.44,0.78-0.89,0.78C20.58,45.13,20.24,44.88,20.12,44.52z"></path></g></g></svg>